<svg xmlns="http://www.w3.org/2000/svg" viewBox="0 0 1440 320"><path fill="#000000" fill-opacity="1" d="M0,192L6.2,192C12.3,192,25,192,37,202.7C49.2,213,62,235,74,208C86.2,181,98,107,111,85.3C123.1,64,135,96,148,117.3C160,139,172,149,185,133.3C196.9,117,209,75,222,74.7C233.8,75,246,117,258,112C270.8,107,283,53,295,32C307.7,11,320,21,332,64C344.6,107,357,181,369,176C381.5,171,394,85,406,80C418.5,75,431,149,443,165.3C455.4,181,468,139,480,122.7C492.3,107,505,117,517,106.7C529.2,96,542,64,554,90.7C566.2,117,578,203,591,213.3C603.1,224,615,160,628,144C640,128,652,160,665,170.7C676.9,181,689,171,702,144C713.8,117,726,75,738,96C750.8,117,763,203,775,234.7C787.7,267,800,245,812,208C824.6,171,837,117,849,117.3C861.5,117,874,171,886,186.7C898.5,203,911,181,923,176C935.4,171,948,181,960,176C972.3,171,985,149,997,154.7C1009.2,160,1022,192,1034,192C1046.2,192,1058,160,1071,133.3C1083.1,107,1095,85,1108,90.7C1120,96,1132,128,1145,154.7C1156.9,181,1169,203,1182,218.7C1193.8,235,1206,245,1218,213.3C1230.8,181,1243,107,1255,90.7C1267.7,75,1280,117,1292,154.7C1304.6,192,1317,224,1329,208C1341.5,192,1354,128,1366,106.7C1378.5,85,1391,107,1403,133.3C1415.4,160,1428,192,1434,208L1440,224L1440,320L1433.8,320C1427.7,320,1415,320,1403,320C1390.8,320,1378,320,1366,320C1353.8,320,1342,320,1329,320C1316.9,320,1305,320,1292,320C1280,320,1268,320,1255,320C1243.1,320,1231,320,1218,320C1206.2,320,1194,320,1182,320C1169.2,320,1157,320,1145,320C1132.3,320,1120,320,1108,320C1095.4,320,1083,320,1071,320C1058.5,320,1046,320,1034,320C1021.5,320,1009,320,997,320C984.6,320,972,320,960,320C947.7,320,935,320,923,320C910.8,320,898,320,886,320C873.8,320,862,320,849,320C836.9,320,825,320,812,320C800,320,788,320,775,320C763.1,320,751,320,738,320C726.2,320,714,320,702,320C689.2,320,677,320,665,320C652.3,320,640,320,628,320C615.4,320,603,320,591,320C578.5,320,566,320,554,320C541.5,320,529,320,517,320C504.6,320,492,320,480,320C467.7,320,455,320,443,320C430.8,320,418,320,406,320C393.8,320,382,320,369,320C356.9,320,345,320,332,320C320,320,308,320,295,320C283.1,320,271,320,258,320C246.2,320,234,320,222,320C209.2,320,197,320,185,320C172.3,320,160,320,148,320C135.4,320,123,320,111,320C98.5,320,86,320,74,320C61.5,320,49,320,37,320C24.6,320,12,320,6,320L0,320Z"></path></svg>