<svg xmlns="http://www.w3.org/2000/svg" viewBox="0 0 1440 320"><path fill="#000000" fill-opacity="1" d="M0,256L6.2,218.7C12.3,181,25,107,37,80C49.2,53,62,75,74,122.7C86.2,171,98,245,111,250.7C123.1,256,135,192,148,149.3C160,107,172,85,185,117.3C196.9,149,209,235,222,240C233.8,245,246,171,258,165.3C270.8,160,283,224,295,234.7C307.7,245,320,203,332,208C344.6,213,357,267,369,266.7C381.5,267,394,213,406,170.7C418.5,128,431,96,443,106.7C455.4,117,468,171,480,165.3C492.3,160,505,96,517,80C529.2,64,542,96,554,101.3C566.2,107,578,85,591,106.7C603.1,128,615,192,628,192C640,192,652,128,665,112C676.9,96,689,128,702,138.7C713.8,149,726,139,738,133.3C750.8,128,763,128,775,149.3C787.7,171,800,213,812,197.3C824.6,181,837,107,849,117.3C861.5,128,874,224,886,261.3C898.5,299,911,277,923,240C935.4,203,948,149,960,160C972.3,171,985,245,997,272C1009.2,299,1022,277,1034,272C1046.2,267,1058,277,1071,288C1083.1,299,1095,309,1108,314.7C1120,320,1132,320,1145,282.7C1156.9,245,1169,171,1182,122.7C1193.8,75,1206,53,1218,74.7C1230.8,96,1243,160,1255,202.7C1267.7,245,1280,267,1292,229.3C1304.6,192,1317,96,1329,80C1341.5,64,1354,128,1366,170.7C1378.5,213,1391,235,1403,250.7C1415.4,267,1428,277,1434,282.7L1440,288L1440,0L1433.8,0C1427.7,0,1415,0,1403,0C1390.8,0,1378,0,1366,0C1353.8,0,1342,0,1329,0C1316.9,0,1305,0,1292,0C1280,0,1268,0,1255,0C1243.1,0,1231,0,1218,0C1206.2,0,1194,0,1182,0C1169.2,0,1157,0,1145,0C1132.3,0,1120,0,1108,0C1095.4,0,1083,0,1071,0C1058.5,0,1046,0,1034,0C1021.5,0,1009,0,997,0C984.6,0,972,0,960,0C947.7,0,935,0,923,0C910.8,0,898,0,886,0C873.8,0,862,0,849,0C836.9,0,825,0,812,0C800,0,788,0,775,0C763.1,0,751,0,738,0C726.2,0,714,0,702,0C689.2,0,677,0,665,0C652.3,0,640,0,628,0C615.4,0,603,0,591,0C578.5,0,566,0,554,0C541.5,0,529,0,517,0C504.6,0,492,0,480,0C467.7,0,455,0,443,0C430.8,0,418,0,406,0C393.8,0,382,0,369,0C356.9,0,345,0,332,0C320,0,308,0,295,0C283.1,0,271,0,258,0C246.2,0,234,0,222,0C209.2,0,197,0,185,0C172.3,0,160,0,148,0C135.4,0,123,0,111,0C98.5,0,86,0,74,0C61.5,0,49,0,37,0C24.6,0,12,0,6,0L0,0Z"></path></svg>